<svg xmlns="http://www.w3.org/2000/svg" viewBox="0 0 32 32" width="32" height="32">
    <!-- Background circle -->
    <circle cx="16" cy="16" r="16" fill="#1a1a1a" />

    <!-- Main flame -->
    <path
        d="M16 6c-2 0-3.5 1.5-4 3.5-0.5 2 0 4 1.5 5.5 0.5 0.5 1 1 1 1.5 0 1-0.5 1.5-1 2-1 1-1.5 2.5-1 4 0.5 2 2 3.5 4 3.5s3.5-1.5 4-3.5c0.5-1.5 0-3-1-4-0.5-0.5-1-1-1-2 0-0.5 0.5-1 1-1.5 1.5-1.5 2-3.5 1.5-5.5C19.5 7.5 18 6 16 6z"
        fill="#ff6b35" />

    <!-- Inner flame highlight -->
    <path
        d="M16 8c-1.5 0-2.5 1-3 2.5-0.3 1.5 0 3 1 4 0.3 0.3 0.5 0.7 0.5 1 0 0.8-0.3 1.2-0.7 1.5-0.7 0.7-1 1.8-0.7 2.8 0.3 1.5 1.5 2.7 3 2.7s2.7-1.2 3-2.7c0.3-1 0-2.1-0.7-2.8-0.4-0.3-0.7-0.7-0.7-1.5 0-0.3 0.2-0.7 0.5-1 1-1 1.3-2.5 1-4C18.5 9 17.5 8 16 8z"
        fill="#ff8c42" />

    <!-- Core flame -->
    <path
        d="M16 10c-1 0-1.8 0.7-2 1.7-0.2 1 0 2 0.7 2.7 0.2 0.2 0.3 0.5 0.3 0.7 0 0.5-0.2 0.8-0.5 1-0.5 0.5-0.7 1.2-0.5 1.9 0.2 1 1 1.8 2 1.8s1.8-0.8 2-1.8c0.2-0.7 0-1.4-0.5-1.9-0.3-0.2-0.5-0.5-0.5-1 0-0.2 0.1-0.5 0.3-0.7 0.7-0.7 0.9-1.7 0.7-2.7C17.8 10.7 17 10 16 10z"
        fill="#ffa726" />

    <!-- Inner glow -->
    <ellipse cx="16" cy="14" rx="1.5" ry="2" fill="#ffcc80" opacity="0.8" />
</svg>